<?xml version="1.0" encoding="utf-8"?>
<!-- Generator: Adobe Illustrator 25.2.0, SVG Export Plug-In . SVG Version: 6.00 Build 0)  -->
<svg version="1.1" id="Слой_1" xmlns="http://www.w3.org/2000/svg" xmlns:xlink="http://www.w3.org/1999/xlink" x="0px" y="0px"
	 viewBox="0 0 20 14" style="enable-background:new 0 0 20 14;" xml:space="preserve">
<style type="text/css">
	.st0{fill-rule:evenodd;clip-rule:evenodd;fill:#EB5D3F;}
</style>
<path class="st0" d="M10,7.4L4.2,3h11.6L10,7.4z M3.9,9.9V4l3.7,2.8L3.9,9.9z M4.1,11h11.7l-4.3-3.6l-1.3,1L10,8.6L9.7,8.4l-1.3-1
	L4.1,11z M12.4,6.8l3.7,3.1V4L12.4,6.8z M3.9,2C3.3,2,2.9,2.5,2.9,3V11c0,0.5,0.4,1,0.9,1h12.3c0.5,0,0.9-0.4,0.9-1V3
	c0-0.5-0.4-1-0.9-1H3.9z"/>
</svg>
